<svg width="22" height="30" viewBox="0 0 22 30" fill="none" xmlns="http://www.w3.org/2000/svg">
<path d="M9.81334 29.6667C9.65873 29.6665 9.50534 29.6395 9.36001 29.5867C9.07967 29.4841 8.84189 29.2903 8.68475 29.0365C8.52762 28.7826 8.46021 28.4834 8.49334 28.1867L9.52001 18.7334H1.66667C1.42445 18.7337 1.1867 18.6681 0.97896 18.5435C0.771221 18.419 0.601341 18.2402 0.487566 18.0263C0.373791 17.8125 0.320419 17.5717 0.333182 17.3298C0.345945 17.0879 0.42436 16.8541 0.560007 16.6534L11.08 0.920048C11.2464 0.673832 11.4903 0.490254 11.7729 0.39846C12.0555 0.306666 12.3607 0.311918 12.64 0.413381C12.9085 0.513065 13.1378 0.696561 13.2939 0.936701C13.45 1.17684 13.5246 1.46086 13.5067 1.74671L12.48 11.2667H20.3333C20.5756 11.2663 20.8133 11.332 21.0211 11.4565C21.2288 11.5811 21.3987 11.7599 21.5124 11.9738C21.6262 12.1876 21.6796 12.4284 21.6668 12.6703C21.6541 12.9122 21.5757 13.146 21.44 13.3467L10.92 29.08C10.7977 29.261 10.6328 29.4091 10.4399 29.5114C10.2469 29.6137 10.0317 29.667 9.81334 29.6667Z" fill="white"/>
</svg>
