<svg width="43" height="47" viewBox="0 0 43 47" fill="none" xmlns="http://www.w3.org/2000/svg">
<g filter="url(#filter0_d_1_41)">
<path d="M18.6902 2.47846L18.7848 31.117L8.22767 22.3863C7.98283 22.1842 7.70058 22.0322 7.39702 21.9392C7.09346 21.8461 6.77454 21.8137 6.45848 21.8439C5.82015 21.9049 5.23221 22.217 4.82396 22.7114C4.41572 23.2059 4.22062 23.8423 4.2816 24.4806C4.34258 25.119 4.65464 25.7069 5.14911 26.1152L19.6772 38.1409C19.7927 38.2218 19.914 38.294 20.0402 38.3571C20.1609 38.3567 20.2337 38.4771 20.3546 38.525C20.6319 38.6336 20.9268 38.6899 21.2245 38.6912C21.5222 38.6879 21.8167 38.6297 22.0932 38.5193C22.214 38.5189 22.286 38.3979 22.4066 38.3492C22.5323 38.2854 22.6531 38.2123 22.7681 38.1307L37.2165 26.0093C37.4883 25.7814 37.7066 25.4964 37.8558 25.1745C38.005 24.8527 38.0814 24.5019 38.0797 24.1471C38.0789 23.5829 37.8806 23.0368 37.5192 22.6036C37.3157 22.3597 37.066 22.1584 36.7846 22.0112C36.5032 21.864 36.1955 21.7737 35.8791 21.7456C35.5627 21.7175 35.2439 21.7521 34.9409 21.8474C34.638 21.9426 34.3567 22.0967 34.1134 22.3009L23.6142 31.101L23.5197 2.46252C23.5176 1.8221 23.2611 1.20875 22.8068 0.757397C22.3524 0.306045 21.7374 0.0536648 21.097 0.0557781C20.4566 0.0578914 19.8432 0.314325 19.3919 0.768666C18.9405 1.22301 18.6881 1.83804 18.6902 2.47846Z" fill="white"/>
</g>
<defs>
<filter id="filter0_d_1_41" x="0.270639" y="0.0557861" width="41.8091" height="46.6354" filterUnits="userSpaceOnUse" color-interpolation-filters="sRGB">
<feFlood flood-opacity="0" result="BackgroundImageFix"/>
<feColorMatrix in="SourceAlpha" type="matrix" values="0 0 0 0 0 0 0 0 0 0 0 0 0 0 0 0 0 0 127 0" result="hardAlpha"/>
<feOffset dy="4"/>
<feGaussianBlur stdDeviation="2"/>
<feComposite in2="hardAlpha" operator="out"/>
<feColorMatrix type="matrix" values="0 0 0 0 0.960784 0 0 0 0 0.509804 0 0 0 0 0.12549 0 0 0 0.25 0"/>
<feBlend mode="normal" in2="BackgroundImageFix" result="effect1_dropShadow_1_41"/>
<feBlend mode="normal" in="SourceGraphic" in2="effect1_dropShadow_1_41" result="shape"/>
</filter>
</defs>
</svg>
